<svg xmlns="http://www.w3.org/2000/svg" width="50" height="41" viewBox="0 0 50 41"><path d="M50,4.85221019 C48.156808,5.67795158 46.1811238,6.23237734 44.1041231,6.48403171 C46.223989,5.20216679 47.8528561,3.17320348 48.6166313,0.758894938 C46.6370506,1.94245662 44.4353519,2.80358664 42.101161,3.26757387 C40.2306911,1.25433896 37.5652714,8.940559e-16 34.6153846,8.940559e-16 C28.9494199,8.940559e-16 24.3550778,4.63201263 24.3550778,10.3492857 C24.3550778,11.1592977 24.4486013,11.9496494 24.6239576,12.7085454 C16.0977321,12.2760139 8.54181259,8.15517371 3.47985403,1.89133957 C2.59527736,3.42485785 2.09258881,5.20216679 2.09258881,7.09743922 C2.09258881,10.6874457 3.90070976,13.8567184 6.65575539,15.7166012 C4.97233243,15.6615513 3.39022709,15.1936322 2.00685844,14.4190079 C2.00685844,14.4622612 2.00685844,14.5055145 2.00685844,14.5487679 C2.00685844,19.5661268 5.5451641,23.7459477 10.2330297,24.7014481 C9.37573094,24.9373741 8.4677739,25.0632013 7.53253892,25.0632013 C6.87008032,25.0632013 6.22710652,25.0002877 5.59971997,24.8744605 C6.90904894,28.9835041 10.6967506,31.9836963 15.1819809,32.0662701 C11.6748498,34.8423328 7.25196843,36.4938146 2.44330143,36.4938146 C1.61328063,36.4938146 0.798847091,36.4466294 5.81458867e-16,36.3483271 C4.53588944,39.2895375 9.9290778,41 15.7236381,41 C34.5920043,41 44.9107635,25.2283499 44.9107635,11.5525076 C44.9107635,11.1042488 44.8990728,10.6520571 44.8834856,10.211662 C46.8864466,8.75285283 48.6244255,6.92835869 50,4.85221019 Z"/></svg>